<mxfile host="app.diagrams.net" agent="Mozilla/5.0 (Macintosh; Intel Mac OS X 10_15_7) AppleWebKit/537.36 (KHTML, like Gecko) Chrome/129.0.0.0 Safari/537.36" border="50" scale="3" compressed="false" locked="false" version="24.7.17">
  <diagram name="Blank" id="YmL12bMKpDGza6XwsDPr">
    <mxGraphModel dx="2263" dy="540" grid="0" gridSize="10" guides="1" tooltips="1" connect="1" arrows="1" fold="1" page="1" pageScale="1" pageWidth="827" pageHeight="1169" background="none" math="1" shadow="0">
      <root>
        <mxCell id="X5NqExCQtvZxIxQ7pmgY-0" />
        <mxCell id="1" parent="X5NqExCQtvZxIxQ7pmgY-0" />
        <mxCell id="W6QKCFrZIBalVPznXQfc-2" value="region" style="rounded=1;whiteSpace=wrap;html=1;fillColor=#dae8fc;strokeColor=#6c8ebf;" vertex="1" parent="1">
          <mxGeometry x="97" y="235" width="120" height="60" as="geometry" />
        </mxCell>
        <mxCell id="W6QKCFrZIBalVPznXQfc-8" value="lang" style="rounded=1;whiteSpace=wrap;html=1;fillColor=#fff2cc;strokeColor=#d6b656;" vertex="1" parent="1">
          <mxGeometry x="219" y="235" width="120" height="60" as="geometry" />
        </mxCell>
        <mxCell id="W6QKCFrZIBalVPznXQfc-9" value="action" style="rounded=1;whiteSpace=wrap;html=1;fillColor=#ffe6cc;strokeColor=#d79b00;" vertex="1" parent="1">
          <mxGeometry x="339" y="235" width="120" height="60" as="geometry" />
        </mxCell>
        <mxCell id="W6QKCFrZIBalVPznXQfc-10" value="ob_version" style="rounded=1;whiteSpace=wrap;html=1;fillColor=#e1d5e7;strokeColor=#9673a6;" vertex="1" parent="1">
          <mxGeometry x="461" y="235" width="120" height="60" as="geometry" />
        </mxCell>
        <mxCell id="W6QKCFrZIBalVPznXQfc-11" value="map_code（6-36）" style="rounded=1;whiteSpace=wrap;html=1;fillColor=#f5f5f5;fontColor=#333333;strokeColor=#666666;" vertex="1" parent="1">
          <mxGeometry x="584" y="235" width="465" height="60" as="geometry" />
        </mxCell>
        <mxCell id="W6QKCFrZIBalVPznXQfc-12" value="1" style="text;html=1;align=center;verticalAlign=middle;resizable=0;points=[];autosize=1;strokeColor=none;fillColor=none;" vertex="1" parent="1">
          <mxGeometry x="139" y="312" width="25" height="26" as="geometry" />
        </mxCell>
        <mxCell id="W6QKCFrZIBalVPznXQfc-13" value="1" style="text;html=1;align=center;verticalAlign=middle;resizable=0;points=[];autosize=1;strokeColor=none;fillColor=none;" vertex="1" parent="1">
          <mxGeometry x="266.5" y="317" width="25" height="26" as="geometry" />
        </mxCell>
        <mxCell id="W6QKCFrZIBalVPznXQfc-14" value="1" style="text;html=1;align=center;verticalAlign=middle;resizable=0;points=[];autosize=1;strokeColor=none;fillColor=none;" vertex="1" parent="1">
          <mxGeometry x="376" y="319" width="25" height="26" as="geometry" />
        </mxCell>
        <mxCell id="W6QKCFrZIBalVPznXQfc-15" value="2" style="text;html=1;align=center;verticalAlign=middle;resizable=0;points=[];autosize=1;strokeColor=none;fillColor=none;" vertex="1" parent="1">
          <mxGeometry x="501" y="317" width="25" height="26" as="geometry" />
        </mxCell>
        <mxCell id="W6QKCFrZIBalVPznXQfc-16" value="1～25" style="text;html=1;align=center;verticalAlign=middle;resizable=0;points=[];autosize=1;strokeColor=none;fillColor=none;" vertex="1" parent="1">
          <mxGeometry x="766" y="332" width="50" height="26" as="geometry" />
        </mxCell>
        <mxCell id="W6QKCFrZIBalVPznXQfc-18" value="" style="shape=crossbar;whiteSpace=wrap;html=1;rounded=1;" vertex="1" parent="1">
          <mxGeometry x="97" y="295" width="120" height="20" as="geometry" />
        </mxCell>
        <mxCell id="W6QKCFrZIBalVPznXQfc-20" value="" style="shape=crossbar;whiteSpace=wrap;html=1;rounded=1;" vertex="1" parent="1">
          <mxGeometry x="219" y="297" width="120" height="20" as="geometry" />
        </mxCell>
        <mxCell id="W6QKCFrZIBalVPznXQfc-21" value="" style="shape=crossbar;whiteSpace=wrap;html=1;rounded=1;" vertex="1" parent="1">
          <mxGeometry x="341" y="299" width="120" height="20" as="geometry" />
        </mxCell>
        <mxCell id="W6QKCFrZIBalVPznXQfc-22" value="" style="shape=crossbar;whiteSpace=wrap;html=1;rounded=1;" vertex="1" parent="1">
          <mxGeometry x="464" y="301" width="120" height="20" as="geometry" />
        </mxCell>
        <mxCell id="W6QKCFrZIBalVPznXQfc-23" value="" style="shape=crossbar;whiteSpace=wrap;html=1;rounded=1;" vertex="1" parent="1">
          <mxGeometry x="586.5" y="299" width="460" height="20" as="geometry" />
        </mxCell>
        <mxCell id="W6QKCFrZIBalVPznXQfc-25" value="account_id" style="rounded=1;whiteSpace=wrap;html=1;fillColor=#e1d5e7;strokeColor=#9673a6;" vertex="1" parent="1">
          <mxGeometry x="1055" y="235" width="120" height="60" as="geometry" />
        </mxCell>
        <mxCell id="W6QKCFrZIBalVPznXQfc-26" value="flag (标识算法的版本以及长短码信息)" style="rounded=1;whiteSpace=wrap;html=1;fillColor=#e1d5e7;strokeColor=#9673a6;" vertex="1" parent="1">
          <mxGeometry x="-23" y="237" width="120" height="60" as="geometry" />
        </mxCell>
        <mxCell id="W6QKCFrZIBalVPznXQfc-29" value="1" style="text;html=1;align=center;verticalAlign=middle;resizable=0;points=[];autosize=1;strokeColor=none;fillColor=none;" vertex="1" parent="1">
          <mxGeometry x="626" y="321" width="25" height="26" as="geometry" />
        </mxCell>
        <mxCell id="W6QKCFrZIBalVPznXQfc-32" value="" style="shape=crossbar;whiteSpace=wrap;html=1;rounded=1;" vertex="1" parent="1">
          <mxGeometry x="1049" y="301" width="120" height="20" as="geometry" />
        </mxCell>
        <mxCell id="W6QKCFrZIBalVPznXQfc-34" value="" style="shape=crossbar;whiteSpace=wrap;html=1;rounded=1;" vertex="1" parent="1">
          <mxGeometry x="-23" y="297" width="120" height="20" as="geometry" />
        </mxCell>
        <mxCell id="W6QKCFrZIBalVPznXQfc-36" value="" style="shape=crossbar;whiteSpace=wrap;html=1;rounded=1;" vertex="1" parent="1">
          <mxGeometry x="-18" y="107" width="1065" height="121" as="geometry" />
        </mxCell>
        <mxCell id="W6QKCFrZIBalVPznXQfc-37" value="7～31" style="text;html=1;align=center;verticalAlign=middle;resizable=0;points=[];autosize=1;strokeColor=none;fillColor=none;" vertex="1" parent="1">
          <mxGeometry x="478" y="137" width="50" height="26" as="geometry" />
        </mxCell>
        <mxCell id="W6QKCFrZIBalVPznXQfc-38" value="" style="shape=crossbar;whiteSpace=wrap;html=1;rounded=1;" vertex="1" parent="1">
          <mxGeometry x="-18" y="208" width="1190" height="20" as="geometry" />
        </mxCell>
        <mxCell id="W6QKCFrZIBalVPznXQfc-39" value="23～42" style="text;html=1;align=center;verticalAlign=middle;resizable=0;points=[];autosize=1;strokeColor=none;fillColor=none;" vertex="1" parent="1">
          <mxGeometry x="555" y="185" width="57" height="26" as="geometry" />
        </mxCell>
        <mxCell id="W6QKCFrZIBalVPznXQfc-41" value="可以pad使其固定长度" style="text;html=1;align=center;verticalAlign=middle;resizable=0;points=[];autosize=1;strokeColor=none;fillColor=none;" vertex="1" parent="1">
          <mxGeometry x="830" y="332" width="134" height="26" as="geometry" />
        </mxCell>
        <mxCell id="W6QKCFrZIBalVPznXQfc-47" value="1" style="text;html=1;align=center;verticalAlign=middle;resizable=0;points=[];autosize=1;strokeColor=none;fillColor=none;" vertex="1" parent="1">
          <mxGeometry x="11" y="317" width="25" height="26" as="geometry" />
        </mxCell>
        <mxCell id="W6QKCFrZIBalVPznXQfc-48" value="11" style="text;html=1;align=center;verticalAlign=middle;resizable=0;points=[];autosize=1;strokeColor=none;fillColor=none;" vertex="1" parent="1">
          <mxGeometry x="1055" y="314" width="30" height="26" as="geometry" />
        </mxCell>
      </root>
    </mxGraphModel>
  </diagram>
</mxfile>
